<?xml version="1.0" standalone="no"?>
<!DOCTYPE svg PUBLIC "-//W3C//DTD SVG 20010904//EN"
 "http://www.w3.org/TR/2001/REC-SVG-20010904/DTD/svg10.dtd">
<svg version="1.0" xmlns="http://www.w3.org/2000/svg"
 width="1024.000000pt" height="441.600000pt" viewBox="0 0 1024.000000 441.600000"
 preserveAspectRatio="xMidYMid meet">
<metadata>
Created by potrace 1.13, written by Peter Selinger 2001-2015
</metadata>
<g transform="translate(0.000000,441.600000) scale(0.080000,-0.080000)"
fill="#000000" stroke="none">
<path d="M2690 5503 c-105 -8 -334 -45 -447 -72 -768 -188 -1418 -698 -1786
-1401 -154 -293 -251 -606 -293 -940 -19 -154 -18 -510 1 -670 170 -1371 1347
-2410 2730 -2410 1046 0 2002 595 2465 1535 366 743 381 1591 43 2342 -365
811 -1116 1406 -1984 1572 -218 42 -518 60 -729 44z m625 -122 c462 -80 858
-252 1215 -529 181 -140 415 -389 552 -587 172 -247 314 -561 387 -854 323
-1293 -347 -2610 -1585 -3114 -623 -254 -1355 -254 -1978 0 -756 308 -1324
930 -1555 1704 -76 255 -111 491 -111 759 0 768 324 1482 903 1993 382 336
856 557 1357 631 159 24 167 24 440 21 203 -2 279 -7 375 -24z"/>
<path d="M1112 4320 c-89 -55 -72 -175 32 -220 l42 -17 98 -414 c54 -228 118
-495 141 -594 24 -99 80 -335 125 -525 128 -534 160 -672 285 -1200 37 -157
71 -289 75 -294 8 -8 129 11 151 25 16 9 77 -216 -602 2212 -104 373 -189 683
-189 690 0 7 27 -28 58 -78 237 -366 502 -920 631 -1318 106 -326 206 -827
272 -1364 12 -98 13 -103 36 -103 12 0 23 4 23 8 0 63 -82 616 -118 796 l-28
139 32 13 c144 60 342 94 584 101 296 8 511 -17 840 -98 239 -59 356 -69 815
-68 432 1 881 18 878 34 -1 6 -41 73 -89 150 -180 287 -303 559 -368 815 -107
420 -192 648 -337 900 -61 106 -152 225 -170 224 -8 -1 -68 -17 -134 -37 -267
-78 -430 -102 -695 -101 -256 0 -322 12 -537 98 -261 103 -467 155 -696 177
-133 13 -376 6 -503 -16 -133 -22 -325 -80 -431 -130 -95 -45 -120 -43 -71 5
103 103 -26 266 -150 190z m3282 -337 c122 -185 207 -368 294 -633 55 -167
100 -336 91 -344 -21 -21 -639 -37 -812 -21 -217 21 -283 28 -377 41 -58 8
-113 17 -122 20 -10 3 -18 1 -18 -3 0 -5 23 -72 51 -148 63 -176 150 -435 179
-540 31 -107 58 -249 49 -253 -3 -2 -60 11 -125 27 -279 70 -517 101 -774 101
-255 0 -486 -35 -648 -99 l-50 -20 -7 37 c-40 231 -163 608 -299 924 -9 20
-12 39 -8 42 34 21 183 57 312 76 96 14 484 14 609 0 184 -20 452 -68 612
-109 40 -10 75 -18 77 -16 3 3 -97 258 -147 373 -61 138 -191 395 -254 500
-30 50 -52 92 -48 92 4 0 34 -9 66 -21 169 -59 427 -83 658 -60 145 14 379 60
507 100 52 16 100 30 107 30 7 1 41 -43 77 -96z m-2108 -93 c27 -44 56 -80 64
-80 8 1 49 7 90 14 41 8 77 12 79 10 2 -2 -14 -24 -35 -50 -71 -84 -77 -94
-66 -107 5 -6 19 -29 31 -50 12 -21 29 -49 37 -63 9 -13 14 -24 11 -24 -3 0
-41 14 -84 30 -42 17 -82 30 -88 30 -6 0 -35 -25 -65 -55 -30 -30 -58 -55 -63
-55 -8 0 -6 38 9 125 5 29 2 31 -75 69 -44 22 -78 42 -76 46 2 4 35 15 72 25
37 10 71 20 75 24 4 3 13 48 19 99 7 50 13 92 15 92 1 0 23 -36 50 -80z"/>
<path d="M2782 1553 l3 -218 28 -3 27 -3 0 89 0 90 99 4 c116 4 147 19 171 86
13 37 13 47 0 84 -26 71 -51 82 -201 86 l-129 4 2 -219z m252 141 c27 -27 31
-63 9 -92 -24 -32 -66 -44 -141 -40 l-57 3 -3 73 -3 72 90 0 c68 0 93 -4 105
-16z"/>
<path d="M3230 1550 l0 -220 160 0 160 0 0 30 c0 17 -3 29 -7 29 -5 -1 -63 -1
-130 0 l-123 1 0 70 0 70 120 0 120 0 0 25 c0 25 -1 25 -92 26 -51 1 -105 0
-120 -1 -28 -1 -28 -1 -28 64 l0 65 123 3 122 3 3 28 3 27 -155 0 -156 0 0
-220z"/>
<path d="M3660 1550 l0 -221 138 3 137 3 0 25 c0 25 0 25 -107 28 l-108 3 0
189 0 190 -30 0 -30 0 0 -220z"/>
<path d="M4040 1549 l0 -220 28 3 27 3 5 162 5 161 109 -164 c98 -148 112
-164 137 -164 l29 0 0 220 0 220 -25 0 -25 0 -2 -167 -3 -168 -113 168 c-103
154 -115 167 -142 167 l-30 0 0 -221z"/>
<path d="M4520 1550 l0 -220 30 0 30 0 0 220 0 220 -30 0 -30 0 0 -220z"/>
<path d="M6520 3795 l0 -345 65 0 65 0 0 125 0 125 104 0 c112 0 153 10 204
47 50 37 74 93 74 174 0 109 -53 182 -151 209 -20 5 -109 10 -198 10 l-163 0
0 -345z m357 202 c23 -23 28 -36 28 -77 0 -41 -5 -54 -28 -77 -26 -26 -34 -28
-127 -31 l-100 -4 0 112 0 112 100 -4 c93 -3 101 -5 127 -31z"/>
<path d="M7220 3795 l0 -345 248 2 247 3 0 55 0 55 -182 3 -183 2 0 90 0 90
160 0 160 0 0 60 0 60 -160 0 -160 0 0 75 0 75 180 0 c202 0 191 -5 187 80
l-2 35 -247 3 -248 2 0 -345z"/>
<path d="M7930 3795 l0 -345 220 0 220 0 0 60 0 60 -155 0 -155 0 0 285 0 285
-65 0 -65 0 0 -345z"/>
<path d="M8709 4113 c-5 -16 -14 -39 -19 -53 -26 -71 -210 -599 -210 -604 0
-3 28 -6 63 -6 l63 0 20 63 20 62 140 3 139 2 20 -62 20 -63 69 -3 c63 -3 68
-1 61 15 -4 10 -52 146 -107 303 -54 157 -106 304 -115 328 l-16 42 -69 0
c-66 0 -69 -1 -79 -27z m126 -273 c25 -74 43 -135 41 -137 -2 -2 -44 -2 -93
-1 l-90 3 46 137 c25 76 46 136 48 134 2 -2 24 -63 48 -136z"/>
<path d="M9148 4108 c11 -18 65 -115 121 -214 l101 -182 0 -131 0 -131 65 0
65 0 0 136 0 135 110 193 c60 106 112 200 116 210 5 14 -3 16 -58 16 l-63 0
-75 -131 c-41 -72 -79 -137 -85 -145 -8 -12 -28 15 -93 131 l-83 145 -71 0
-70 0 20 -32z"/>
<path d="M10015 4128 c-2 -7 -45 -130 -95 -273 -50 -143 -102 -291 -116 -328
-13 -38 -24 -70 -24 -73 0 -2 28 -4 63 -4 l63 0 20 63 20 62 140 3 140 3 20
-63 20 -63 67 -3 c37 -2 67 -1 67 2 0 3 -4 15 -10 28 -5 13 -25 68 -44 123
-38 110 -163 464 -178 508 -10 26 -13 27 -79 27 -47 0 -71 -4 -74 -12z m120
-288 c21 -63 40 -121 43 -127 3 -10 -19 -13 -91 -13 l-96 0 46 136 c25 75 49
132 53 127 4 -4 24 -60 45 -123z"/>
<path d="M10577 4118 c-4 -13 -6 -167 -4 -343 l2 -320 63 -3 62 -3 0 131 0
130 78 0 77 0 55 -128 55 -127 69 -3 c80 -4 80 -18 0 162 -30 66 -54 121 -54
123 0 2 6 3 13 3 7 0 27 13 45 30 100 91 83 265 -32 335 l-49 30 -187 3 -187
4 -6 -24z m369 -119 c38 -38 43 -97 12 -133 -29 -34 -79 -44 -185 -38 l-73 4
0 100 0 100 110 -4 c102 -3 111 -5 136 -29z"/>
<path d="M11462 4113 c-5 -15 -40 -113 -77 -218 -36 -104 -86 -246 -111 -314
-24 -68 -44 -125 -44 -127 0 -2 29 -4 64 -4 l64 0 22 65 22 65 137 0 137 0 20
-62 20 -63 67 -3 c37 -2 67 -1 67 1 0 2 -25 76 -56 163 -31 87 -84 240 -118
339 l-63 180 -71 3 c-68 3 -70 2 -80 -25z m127 -280 c22 -68 41 -125 41 -128
0 -3 -42 -5 -94 -5 l-94 0 46 139 c26 76 50 133 53 127 4 -6 25 -66 48 -133z"/>
<path d="M12030 3795 l0 -345 60 0 60 0 2 232 3 232 145 -229 146 -230 67 -3
67 -3 0 346 0 345 -65 0 -65 0 0 -227 0 -228 -58 90 c-31 49 -95 150 -142 225
l-85 135 -68 3 -67 3 0 -346z"/>
<path d="M8423 3060 c-113 -24 -186 -104 -186 -205 0 -58 12 -86 57 -133 35
-37 94 -57 201 -68 113 -11 145 -31 145 -90 0 -71 -89 -116 -186 -95 -56 13
-91 42 -103 87 -7 28 -10 29 -69 32 l-62 3 0 -31 c0 -38 29 -97 67 -132 101
-96 320 -99 422 -5 58 53 77 157 42 232 -34 75 -99 108 -240 124 -102 11 -137
27 -147 68 -15 58 45 107 133 107 61 0 100 -22 123 -72 15 -31 17 -32 79 -32
l63 0 -7 37 c-12 65 -67 128 -137 158 -45 18 -143 26 -195 15z"/>
<path d="M9760 3057 c-142 -40 -210 -152 -210 -347 0 -168 49 -271 155 -325
119 -61 276 -28 352 73 51 68 66 135 61 276 -5 134 -20 183 -76 248 -59 67
-189 101 -282 75z m133 -116 c73 -28 101 -103 96 -258 -4 -91 -8 -114 -27
-144 -59 -96 -197 -90 -256 11 -18 30 -21 52 -21 160 0 108 3 130 21 160 39
68 117 97 187 71z"/>
<path d="M6520 2710 l0 -340 65 0 65 0 2 226 3 226 140 -223 141 -224 67 -3
67 -3 0 341 0 340 -60 0 -60 0 -2 -226 -3 -225 -143 225 -143 226 -70 0 -69 0
0 -340z"/>
<path d="M7547 2893 c-151 -430 -177 -504 -177 -514 0 -6 24 -9 61 -7 l62 3
21 60 21 60 138 3 c86 2 137 -1 137 -7 0 -6 9 -35 21 -66 l20 -55 65 0 c35 0
64 2 64 4 0 2 -27 82 -61 178 -33 95 -76 218 -96 273 -19 55 -44 127 -57 160
l-22 60 -70 3 -71 3 -56 -158z m172 -136 c23 -68 41 -129 41 -135 0 -8 -28
-12 -90 -12 -49 0 -90 3 -90 7 0 18 85 263 91 263 4 0 26 -56 48 -123z"/>
<path d="M9090 2710 l0 -340 65 0 65 0 0 340 0 340 -65 0 -65 0 0 -340z"/>
<path d="M10450 2710 l0 -340 65 0 65 0 2 226 3 226 141 -224 141 -223 67 -3
66 -3 0 341 0 340 -60 0 -60 0 -2 -226 -3 -227 -141 224 -141 224 -71 3 -72 3
0 -341z"/>
<path d="M11505 2973 c-44 -127 -90 -258 -149 -426 -31 -87 -56 -162 -56 -168
0 -6 25 -9 61 -7 l61 3 23 60 22 60 136 3 135 3 12 -38 c29 -97 26 -93 96 -93
35 0 64 2 64 5 0 4 -68 200 -165 475 -18 52 -41 119 -51 148 l-19 52 -71 0
-71 0 -28 -77z m144 -215 c22 -68 41 -129 41 -135 0 -10 -25 -13 -90 -13 -49
0 -90 3 -90 7 0 17 85 263 91 263 3 0 25 -55 48 -122z"/>
<path d="M12200 2710 l0 -340 225 0 226 0 -3 58 -3 57 -135 2 c-74 1 -145 2
-157 3 l-23 0 0 280 0 280 -65 0 -65 0 0 -340z"/>
<path d="M8735 1968 c-81 -29 -151 -104 -175 -188 -17 -58 -22 -184 -10 -255
27 -168 122 -255 280 -255 167 0 259 92 282 281 31 268 -81 431 -294 428 -29
0 -66 -5 -83 -11z m174 -127 c43 -30 62 -65 72 -137 13 -88 3 -187 -23 -243
-16 -32 -31 -48 -62 -62 -52 -23 -80 -23 -133 0 -67 31 -87 80 -87 216 -1 65
4 125 12 146 33 93 146 134 221 80z"/>
<path d="M11068 1961 c-108 -42 -153 -108 -146 -211 8 -111 75 -163 234 -179
97 -10 120 -16 147 -39 19 -17 23 -72 6 -104 -24 -45 -148 -64 -215 -32 -34
16 -64 58 -64 89 0 12 -13 15 -66 15 l-67 0 7 -41 c13 -79 75 -146 165 -177
48 -17 180 -15 232 3 95 34 148 105 149 198 0 60 -18 104 -61 143 -45 41 -74
50 -203 68 -65 8 -114 20 -123 29 -20 20 -19 84 2 107 39 43 146 51 201 15 15
-9 31 -30 37 -46 11 -28 14 -29 74 -29 72 0 76 6 44 76 -23 50 -80 98 -140
119 -60 20 -155 18 -213 -4z"/>
<path d="M6520 1625 l0 -345 65 0 65 0 0 345 0 345 -65 0 -65 0 0 -345z"/>
<path d="M6940 1625 l0 -345 65 0 65 0 2 229 3 229 143 -229 144 -229 64 0 64
0 0 345 0 345 -60 0 -60 0 0 -232 0 -232 -147 232 -147 232 -68 0 -68 0 0
-345z"/>
<path d="M7790 1625 l0 -347 178 4 c158 3 181 5 217 25 54 28 89 68 117 128
20 44 22 67 23 180 0 78 -5 147 -13 172 -18 62 -70 123 -127 152 -47 24 -61
26 -222 29 l-173 4 0 -347z m358 192 c39 -37 52 -86 52 -194 0 -102 -11 -146
-48 -186 -34 -36 -81 -49 -167 -45 l-70 3 -3 228 -2 229 104 -4 c99 -3 106 -5
134 -31z"/>
<path d="M9370 1625 l0 -345 60 0 60 0 0 232 c0 127 3 228 8 224 4 -4 70 -107
148 -229 l140 -222 67 -3 67 -3 0 346 0 346 -61 -3 -62 -3 0 -200 c0 -110 -2
-210 -6 -222 -5 -17 -32 20 -146 200 l-140 222 -68 3 -67 3 0 -346z"/>
<path d="M10210 1625 l0 -345 245 0 245 0 0 55 0 55 -180 0 -180 0 0 95 0 95
160 0 161 0 -3 55 -3 56 -157 1 -158 1 0 78 0 79 180 0 180 0 0 60 0 60 -245
0 -245 0 0 -345z"/>
<path d="M11700 1625 l0 -345 65 0 66 0 -3 343 -3 342 -62 3 -63 3 0 -346z"/>
<path d="M12275 1958 c-5 -13 -58 -163 -176 -502 -32 -92 -59 -170 -59 -172 0
-2 28 -4 63 -4 l63 0 20 63 20 62 139 0 139 0 20 -62 20 -63 67 0 68 0 -56
158 c-30 86 -82 234 -115 327 -33 94 -62 178 -65 188 -4 14 -17 17 -74 17 -47
0 -71 -4 -74 -12z m120 -297 c25 -73 45 -135 45 -137 0 -2 -43 -4 -96 -4 -73
0 -95 3 -92 13 3 6 24 70 48 140 23 71 44 126 46 124 2 -2 24 -64 49 -136z"/>
</g>
</svg>
